<mxfile host="app.diagrams.net" modified="2023-05-26T14:32:16.056Z" agent="Mozilla/5.0 (Windows NT 10.0; Win64; x64) AppleWebKit/537.36 (KHTML, like Gecko) Chrome/113.0.0.0 Safari/537.36" etag="GHeBoK737DQnlskVkigH" version="21.2.9" type="device">
  <diagram name="Page-1" id="Ng2IxUhfKo7_XWIyCWpd">
    <mxGraphModel dx="842" dy="428" grid="1" gridSize="10" guides="1" tooltips="1" connect="1" arrows="1" fold="1" page="1" pageScale="1" pageWidth="827" pageHeight="1169" math="0" shadow="0">
      <root>
        <mxCell id="0" />
        <mxCell id="1" parent="0" />
        <mxCell id="HVJSnDdZEBG7foW4JrWC-4" style="edgeStyle=orthogonalEdgeStyle;rounded=0;orthogonalLoop=1;jettySize=auto;html=1;entryX=0;entryY=0.5;entryDx=0;entryDy=0;" edge="1" parent="1" source="HVJSnDdZEBG7foW4JrWC-1" target="HVJSnDdZEBG7foW4JrWC-3">
          <mxGeometry relative="1" as="geometry" />
        </mxCell>
        <mxCell id="HVJSnDdZEBG7foW4JrWC-1" value="" style="ellipse;html=1;shape=endState;fillColor=#000000;strokeColor=none;" vertex="1" parent="1">
          <mxGeometry x="130" y="80" width="60" height="60" as="geometry" />
        </mxCell>
        <mxCell id="HVJSnDdZEBG7foW4JrWC-2" value="Чіп піднесено до сканеру" style="text;html=1;strokeColor=none;fillColor=none;align=center;verticalAlign=middle;whiteSpace=wrap;rounded=0;" vertex="1" parent="1">
          <mxGeometry x="120" y="140" width="80" height="40" as="geometry" />
        </mxCell>
        <mxCell id="HVJSnDdZEBG7foW4JrWC-6" style="edgeStyle=orthogonalEdgeStyle;rounded=0;orthogonalLoop=1;jettySize=auto;html=1;entryX=0;entryY=0.5;entryDx=0;entryDy=0;" edge="1" parent="1" source="HVJSnDdZEBG7foW4JrWC-3" target="HVJSnDdZEBG7foW4JrWC-5">
          <mxGeometry relative="1" as="geometry" />
        </mxCell>
        <mxCell id="HVJSnDdZEBG7foW4JrWC-3" value="Зчитати дані з чіпа" style="rounded=1;whiteSpace=wrap;html=1;" vertex="1" parent="1">
          <mxGeometry x="330" y="80" width="120" height="60" as="geometry" />
        </mxCell>
        <mxCell id="HVJSnDdZEBG7foW4JrWC-8" style="edgeStyle=orthogonalEdgeStyle;rounded=0;orthogonalLoop=1;jettySize=auto;html=1;entryX=0.5;entryY=0;entryDx=0;entryDy=0;" edge="1" parent="1" source="HVJSnDdZEBG7foW4JrWC-5" target="HVJSnDdZEBG7foW4JrWC-7">
          <mxGeometry relative="1" as="geometry" />
        </mxCell>
        <mxCell id="HVJSnDdZEBG7foW4JrWC-5" value="передати інформацію до сервер клієнта" style="rounded=1;whiteSpace=wrap;html=1;" vertex="1" parent="1">
          <mxGeometry x="560" y="80" width="120" height="60" as="geometry" />
        </mxCell>
        <mxCell id="HVJSnDdZEBG7foW4JrWC-9" style="edgeStyle=orthogonalEdgeStyle;rounded=0;orthogonalLoop=1;jettySize=auto;html=1;" edge="1" parent="1" source="HVJSnDdZEBG7foW4JrWC-7">
          <mxGeometry relative="1" as="geometry">
            <mxPoint x="620" y="359.9999999999999" as="targetPoint" />
          </mxGeometry>
        </mxCell>
        <mxCell id="HVJSnDdZEBG7foW4JrWC-12" value="Так" style="edgeLabel;html=1;align=center;verticalAlign=middle;resizable=0;points=[];" vertex="1" connectable="0" parent="HVJSnDdZEBG7foW4JrWC-9">
          <mxGeometry x="-0.2571" y="-1" relative="1" as="geometry">
            <mxPoint as="offset" />
          </mxGeometry>
        </mxCell>
        <mxCell id="HVJSnDdZEBG7foW4JrWC-13" style="edgeStyle=orthogonalEdgeStyle;rounded=0;orthogonalLoop=1;jettySize=auto;html=1;exitX=0;exitY=1;exitDx=0;exitDy=0;entryX=0.998;entryY=0.774;entryDx=0;entryDy=0;entryPerimeter=0;" edge="1" parent="1" source="HVJSnDdZEBG7foW4JrWC-7" target="HVJSnDdZEBG7foW4JrWC-14">
          <mxGeometry relative="1" as="geometry">
            <mxPoint x="420" y="255" as="targetPoint" />
            <Array as="points">
              <mxPoint x="430" y="255" />
            </Array>
          </mxGeometry>
        </mxCell>
        <mxCell id="HVJSnDdZEBG7foW4JrWC-16" value="Ні" style="edgeLabel;html=1;align=center;verticalAlign=middle;resizable=0;points=[];" vertex="1" connectable="0" parent="HVJSnDdZEBG7foW4JrWC-13">
          <mxGeometry x="0.0877" y="-1" relative="1" as="geometry">
            <mxPoint as="offset" />
          </mxGeometry>
        </mxCell>
        <mxCell id="HVJSnDdZEBG7foW4JrWC-7" value="Є зв&#39;язок з Інтернетом?" style="rhombus;whiteSpace=wrap;html=1;" vertex="1" parent="1">
          <mxGeometry x="565" y="180" width="110" height="100" as="geometry" />
        </mxCell>
        <mxCell id="HVJSnDdZEBG7foW4JrWC-10" value="Відправити інформацію на сервер" style="rounded=1;whiteSpace=wrap;html=1;" vertex="1" parent="1">
          <mxGeometry x="560" y="360" width="120" height="60" as="geometry" />
        </mxCell>
        <mxCell id="HVJSnDdZEBG7foW4JrWC-15" style="edgeStyle=orthogonalEdgeStyle;rounded=0;orthogonalLoop=1;jettySize=auto;html=1;entryX=0;entryY=0;entryDx=0;entryDy=0;exitX=1.003;exitY=0.315;exitDx=0;exitDy=0;exitPerimeter=0;" edge="1" parent="1" source="HVJSnDdZEBG7foW4JrWC-14" target="HVJSnDdZEBG7foW4JrWC-7">
          <mxGeometry relative="1" as="geometry" />
        </mxCell>
        <mxCell id="HVJSnDdZEBG7foW4JrWC-14" value="Почекати 5 секунд" style="rounded=1;whiteSpace=wrap;html=1;" vertex="1" parent="1">
          <mxGeometry x="350" y="170" width="80" height="110" as="geometry" />
        </mxCell>
      </root>
    </mxGraphModel>
  </diagram>
</mxfile>
